<?xml version="1.0" standalone="no"?>
<!DOCTYPE svg PUBLIC "-//W3C//DTD SVG 20010904//EN"
 "http://www.w3.org/TR/2001/REC-SVG-20010904/DTD/svg10.dtd">
<svg version="1.0" xmlns="http://www.w3.org/2000/svg"
 width="285.000000pt" height="211.000000pt" viewBox="0 0 285.000000 211.000000"
 preserveAspectRatio="xMidYMid meet">

<g transform="translate(0.000000,211.000000) scale(0.100000,-0.100000)"
fill="#000000" stroke="none">
<path d="M1496 2085 c-3 -8 -14 -15 -24 -15 -17 0 -20 -11 -26 -115 l-6 -115
166 -243 c91 -133 172 -248 179 -256 33 -34 148 64 243 206 58 86 93 127 80
91 -3 -8 -61 -97 -129 -199 -67 -101 -122 -189 -122 -195 0 -6 24 -45 53 -88
37 -53 58 -75 69 -72 9 3 43 10 75 16 33 7 66 18 74 26 7 8 19 14 25 14 7 0
152 203 322 451 363 529 350 509 336 509 -6 0 -11 -5 -11 -10 0 -6 -60 -97
-133 -203 -73 -106 -218 -314 -321 -464 l-188 -271 -62 -11 c-35 -6 -67 -11
-73 -11 -6 0 -33 33 -61 73 l-50 72 133 202 c73 111 131 204 128 207 -4 3 -18
6 -32 6 -22 0 -39 -19 -106 -116 -66 -97 -164 -204 -185 -204 -3 0 -27 33 -54
73 -28 39 -105 152 -173 250 l-124 179 8 114 c8 105 4 137 -11 99z"/>
<path d="M1608 2093 c46 -2 118 -2 160 0 42 1 5 3 -83 3 -88 0 -123 -2 -77 -3z"/>
<path d="M1892 2040 c23 -33 45 -60 49 -60 10 0 73 110 66 116 -2 2 -10 -2
-17 -11 -7 -8 -19 -15 -26 -15 -8 0 -20 -11 -26 -25 -6 -14 -14 -25 -17 -25
-4 0 -17 18 -31 40 -14 22 -28 40 -32 40 -4 0 12 -27 34 -60z"/>
<path d="M2207 2093 c105 -2 281 -2 390 0 109 1 23 2 -192 2 -214 0 -304 -1
-198 -2z"/>
<path d="M227 2071 c-15 -10 -66 -69 -112 -131 l-85 -114 2 -180 3 -179 115
-41 115 -41 -92 -3 c-74 -2 -93 -6 -93 -17 0 -9 -10 -15 -25 -15 l-25 0 0
-120 c0 -66 3 -120 8 -120 4 0 70 -7 147 -15 174 -18 1030 -22 1040 -4 4 6 15
13 25 17 11 4 51 49 89 101 l70 94 0 291 c-1 160 -4 334 -8 386 -4 52 -5 -77
-3 -287 l4 -381 -72 -96 -72 -96 -420 0 c-370 0 -557 7 -705 26 l-43 5 0 110
0 109 477 2 c370 2 477 6 481 16 3 9 -67 12 -330 12 l-333 0 -137 50 c-75 28
-142 50 -148 50 -6 0 -10 61 -10 176 l0 176 78 106 c77 105 96 133 90 131 -2
0 -15 -8 -31 -18z"/>
<path d="M34 975 c-4 -8 -12 -15 -20 -15 -12 0 -14 -60 -14 -367 l1 -368 142
-112 142 -113 326 0 c278 0 328 2 339 15 7 8 18 15 24 15 6 0 28 19 48 42 l37
43 1 -57 0 -58 120 0 c100 0 120 3 120 15 0 9 9 15 23 15 22 0 24 5 35 94 7
52 12 206 12 341 l0 246 -302 -3 -303 -3 -107 -53 -108 -54 0 -54 c0 -34 -4
-53 -10 -49 -6 4 -10 53 -10 116 l0 109 378 0 c483 0 462 -8 462 176 l0 94
-665 0 c-582 0 -666 -2 -671 -15z m1321 -92 c-4 -54 -8 -104 -10 -110 -3 -10
-83 -13 -352 -13 -191 0 -432 -3 -535 -7 l-188 -6 0 -45 0 -44 -26 16 c-14 10
-31 15 -37 12 -7 -2 -4 -5 6 -5 9 -1 17 -5 17 -11 0 -6 -9 -6 -26 0 -14 6 -30
8 -35 4 -5 -3 -9 0 -9 5 0 6 -7 11 -15 11 -8 0 -15 -4 -15 -10 0 -5 -9 -10
-20 -10 -11 0 -20 4 -20 8 0 5 -6 9 -13 9 -8 0 -14 -14 -16 -36 -1 -19 -4 -37
-6 -40 -3 -2 -5 80 -5 182 l0 187 656 0 655 0 -6 -97z m-728 -295 c-3 -7 -5
-2 -5 12 0 14 2 19 5 13 2 -7 2 -19 0 -25z"/>
<path d="M1580 975 c-7 -8 -18 -15 -24 -15 -6 0 -42 -40 -79 -90 l-67 -90 0
-390 0 -390 564 0 c489 0 565 2 576 15 7 8 19 15 26 15 7 0 54 54 104 120 l90
119 0 179 0 179 -127 39 -128 39 -360 5 -360 6 463 2 c277 1 462 6 462 11 0 5
10 11 23 13 21 3 22 7 25 126 l3 122 -589 0 c-512 0 -591 -2 -602 -15z m1171
1 c2 -2 3 -52 1 -110 l-3 -106 -466 0 c-465 0 -467 0 -490 -22 -13 -12 -23
-27 -23 -33 0 -7 -9 -20 -21 -31 -20 -18 -21 -18 -35 1 -8 10 -14 13 -14 7 0
-7 -7 -12 -16 -12 -8 0 -12 5 -9 10 3 6 1 10 -4 10 -6 0 -11 -4 -11 -10 0 -5
-20 -10 -44 -10 -25 0 -48 5 -51 10 -3 6 -12 10 -18 9 -9 0 -9 -2 1 -6 23 -9
12 -18 -22 -18 -19 0 -32 3 -29 8 2 4 0 7 -6 7 -6 0 -12 -38 -14 -92 -2 -72
-3 -61 -5 50 -1 78 1 142 6 142 4 0 39 45 77 100 l70 99 561 1 c308 0 563 -2
565 -4z m-1161 -30 c0 -2 -8 -10 -17 -17 -16 -13 -17 -12 -4 4 13 16 21 21 21
13z m1160 -351 c0 -14 -2 -25 -4 -25 -2 0 -6 11 -8 25 -3 14 -1 25 3 25 5 0 9
-11 9 -25z"/>
<path d="M1586 692 c-3 -4 4 -9 15 -9 23 -2 25 3 4 10 -8 4 -16 3 -19 -1z"/>
<path d="M1730 679 c0 -5 5 -7 10 -4 6 3 10 8 10 11 0 2 -4 4 -10 4 -5 0 -10
-5 -10 -11z"/>
</g>
</svg>
